<?xml version="1.0" standalone="no"?>
<!DOCTYPE svg PUBLIC "-//W3C//DTD SVG 20010904//EN"
 "http://www.w3.org/TR/2001/REC-SVG-20010904/DTD/svg10.dtd">
<svg version="1.0" xmlns="http://www.w3.org/2000/svg"
 width="383.000000pt" height="383.000000pt" viewBox="0 0 383.000000 383.000000"
 preserveAspectRatio="xMidYMid meet">

<g transform="translate(0.000000,383.000000) scale(0.100000,-0.100000)"
fill="#000000" stroke="none">
<path d="M1170 2539 c-20 -6 -17 -7 18 -8 23 -1 42 1 42 3 0 9 -37 12 -60 5z"/>
<path d="M1339 2508 c0 -13 0 -130 0 -260 0 -131 -2 -238 -4 -238 -2 0 -26 14
-52 30 -56 36 -106 39 -161 11 -70 -36 -122 -113 -122 -180 0 -70 43 -151 99
-188 59 -38 160 -33 203 12 12 13 26 21 30 19 5 -3 8 -61 8 -130 l0 -124 25 0
25 0 0 487 c0 560 -12 521 110 349 64 -90 79 -106 103 -106 l27 0 0 170 0 170
-25 0 -25 0 0 -120 c0 -66 -3 -120 -7 -120 -5 1 -47 55 -95 120 -72 99 -92
120 -113 120 -19 0 -25 -5 -26 -22z"/>
<path d="M1055 2484 l-30 -26 33 22 c17 12 32 23 32 26 0 7 -4 5 -35 -22z"/>
<path d="M2000 2465 c0 -42 -6 -50 -32 -46 -5 0 -8 -10 -8 -24 0 -18 5 -25 20
-25 18 0 20 -7 20 -70 0 -80 19 -110 69 -110 20 0 30 6 34 20 4 14 0 20 -12
20 -30 0 -41 22 -41 82 l0 58 31 0 c26 0 30 3 27 23 -2 16 -11 23 -30 25 -26
3 -28 7 -28 48 0 40 -2 44 -25 44 -23 0 -25 -4 -25 -45z"/>
<path d="M1765 2408 c-63 -34 -88 -92 -65 -148 19 -45 60 -70 115 -70 116 0
160 148 62 209 -37 23 -81 27 -112 9z m95 -60 c40 -43 11 -108 -49 -108 -39 0
-61 24 -61 65 0 59 69 87 110 43z"/>
<path d="M980 2381 c-6 -16 -10 -38 -7 -48 4 -14 5 -13 6 5 0 13 6 32 12 44 6
11 9 22 6 24 -2 3 -10 -9 -17 -25z"/>
<path d="M973 2255 c0 -22 2 -30 4 -17 2 12 2 30 0 40 -3 9 -5 -1 -4 -23z"/>
<path d="M961 2184 c0 -11 3 -14 6 -6 3 7 2 16 -1 19 -3 4 -6 -2 -5 -13z"/>
<path d="M1465 2158 c-32 -18 -44 -40 -44 -78 0 -47 16 -65 88 -100 48 -24 61
-35 61 -53 0 -48 -58 -64 -98 -26 -15 13 -29 18 -42 14 -28 -9 -25 -29 11 -59
24 -20 41 -26 81 -26 41 0 54 5 79 29 56 56 32 121 -60 166 -63 29 -82 55 -61
80 15 18 40 19 74 4 19 -9 29 -9 40 0 46 38 -71 82 -129 49z"/>
<path d="M1740 2053 c-31 -11 -70 -58 -76 -90 -14 -73 41 -133 121 -133 40 0
52 5 81 34 28 28 34 41 34 78 0 24 -7 54 -16 67 -27 39 -99 60 -144 44z m85
-68 c29 -28 31 -51 9 -83 -18 -27 -69 -30 -96 -5 -26 23 -24 78 4 97 32 22 55
20 83 -9z"/>
<path d="M1441 1774 c-58 -48 -31 -139 47 -159 45 -11 72 -36 72 -65 0 -44
-58 -55 -103 -20 -26 21 -57 18 -57 -5 0 -7 14 -25 31 -39 24 -20 41 -26 81
-26 41 0 54 5 79 29 33 33 38 77 14 114 -8 13 -42 36 -75 52 -62 29 -81 55
-60 80 15 18 40 19 74 4 20 -9 29 -9 41 1 21 17 19 23 -14 43 -43 25 -94 22
-130 -9z"/>
<path d="M1833 1683 c-21 -4 -23 -10 -23 -69 0 -77 -12 -104 -45 -104 -33 0
-45 27 -45 104 0 64 -1 66 -25 66 -24 0 -25 -2 -25 -75 0 -79 16 -127 45 -139
39 -15 96 -6 120 19 23 22 25 32 25 115 0 49 -1 89 -2 89 -2 -1 -13 -4 -25 -6z"/>
<path d="M1934 1676 c-2 -6 -3 -88 -2 -181 3 -162 4 -170 23 -170 18 0 21 8
25 77 4 66 7 76 20 68 8 -5 33 -10 56 -10 101 0 149 130 72 195 -38 32 -74 41
-111 27 -17 -6 -35 -8 -41 -4 -19 11 -37 11 -42 -2z m154 -56 c45 -42 17 -110
-44 -110 -59 0 -83 70 -38 114 21 22 56 20 82 -4z"/>
<path d="M2273 1673 c-41 -21 -67 -74 -59 -122 13 -84 128 -122 195 -65 17 14
31 32 31 40 0 21 -43 17 -63 -6 -9 -11 -27 -20 -40 -20 -28 0 -67 26 -67 46 0
11 18 14 90 14 85 0 90 1 90 21 0 52 -65 110 -122 108 -12 0 -37 -7 -55 -16z
m107 -53 c10 -19 8 -20 -45 -20 -30 0 -55 4 -55 8 0 35 83 45 100 12z"/>
<path d="M2510 1574 l0 -114 25 0 c24 0 25 2 25 70 0 58 3 72 22 90 12 11 32
20 45 20 18 0 23 6 23 25 0 19 -5 25 -23 25 -12 0 -32 -7 -44 -15 -13 -9 -23
-11 -25 -5 -2 6 -13 12 -26 15 -22 4 -22 3 -22 -111z"/>
</g>
</svg>
